<svg width="175" height="86" viewBox="0 0 175 86" fill="none" xmlns="http://www.w3.org/2000/svg">
<path d="M24 13C10.7452 13 0 23.7452 0 37C0 50.2548 12 64 24 73C36 64 48 50.2548 48 37C48 23.7452 37.2548 13 24 13ZM24 55C14.0589 55 6 46.9411 6 37C6 27.0589 14.0589 19 24 19C33.9411 19 42 27.0589 42 37C42 46.9411 33.9411 55 24 55Z" fill="url(#paint0_linear_9_77)"/>
<path d="M15 34H33L30 46H18L15 34ZM18 28V31H30V28C30 26.3432 28.6568 25 27 25H21C19.3432 25 18 26.3432 18 28Z" fill="url(#paint1_linear_9_77)"/>
<path d="M85.848 68.008C82.392 68.008 79.296 67.48 76.56 66.424C73.824 65.32 71.472 63.736 69.504 61.672C67.584 59.56 66.096 56.992 65.04 53.968C64.032 50.896 63.528 47.392 63.528 43.456C63.528 37.84 64.512 33.208 66.48 29.56C68.448 25.864 71.136 23.104 74.544 21.28C78 19.408 81.888 18.472 86.208 18.472C89.568 18.472 92.616 19.024 95.352 20.128C98.088 21.184 100.416 22.768 102.336 24.88C104.304 26.944 105.816 29.536 106.872 32.656C107.928 35.728 108.456 39.256 108.456 43.24C108.456 47.32 107.928 50.896 106.872 53.968C105.816 57.04 104.28 59.632 102.264 61.744C100.296 63.808 97.92 65.368 95.136 66.424C92.352 67.48 89.256 68.008 85.848 68.008ZM86.136 59.728C88.68 59.728 90.816 59.104 92.544 57.856C94.272 56.608 95.592 54.808 96.504 52.456C97.416 50.104 97.872 47.224 97.872 43.816C97.872 40.264 97.392 37.24 96.432 34.744C95.52 32.248 94.176 30.352 92.4 29.056C90.624 27.712 88.464 27.04 85.92 27.04C83.424 27.04 81.288 27.688 79.512 28.984C77.784 30.232 76.44 32.056 75.48 34.456C74.568 36.856 74.112 39.832 74.112 43.384C74.112 45.976 74.376 48.304 74.904 50.368C75.48 52.384 76.272 54.088 77.28 55.48C78.288 56.872 79.536 57.928 81.024 58.648C82.512 59.368 84.216 59.728 86.136 59.728ZM113.547 81.544C113.259 81.544 112.947 81.52 112.611 81.472C112.323 81.472 112.011 81.424 111.675 81.328L110.811 72.472C113.019 72.472 114.579 72.112 115.491 71.392C116.451 70.672 116.931 69.232 116.931 67.072V29.2H127.299V67.36C127.299 69.856 126.987 71.992 126.363 73.768C125.787 75.592 124.923 77.056 123.771 78.16C122.619 79.312 121.179 80.152 119.451 80.68C117.771 81.256 115.803 81.544 113.547 81.544ZM122.115 23.512C120.099 23.512 118.539 23.104 117.435 22.288C116.379 21.424 115.851 20.176 115.851 18.544C115.851 16.864 116.379 15.592 117.435 14.728C118.539 13.864 120.099 13.432 122.115 13.432C124.179 13.432 125.739 13.864 126.795 14.728C127.899 15.592 128.451 16.864 128.451 18.544C128.451 20.128 127.899 21.352 126.795 22.216C125.739 23.08 124.179 23.512 122.115 23.512ZM145.749 68.008C143.637 68.008 141.765 67.6 140.133 66.784C138.501 65.92 137.229 64.696 136.317 63.112C135.405 61.528 134.949 59.56 134.949 57.208C134.949 55.144 135.333 53.416 136.101 52.024C136.917 50.632 138.093 49.504 139.629 48.64C141.165 47.776 143.061 47.056 145.317 46.48C147.573 45.904 150.141 45.4 153.021 44.968C154.557 44.728 155.805 44.512 156.765 44.32C157.773 44.08 158.517 43.72 158.997 43.24C159.477 42.712 159.717 41.968 159.717 41.008C159.717 39.664 159.237 38.512 158.277 37.552C157.317 36.592 155.805 36.112 153.741 36.112C152.349 36.112 151.053 36.352 149.853 36.832C148.701 37.312 147.693 38.032 146.829 38.992C146.013 39.952 145.413 41.176 145.029 42.664L135.885 39.856C136.461 37.888 137.277 36.184 138.333 34.744C139.437 33.304 140.757 32.104 142.293 31.144C143.829 30.136 145.581 29.392 147.549 28.912C149.517 28.432 151.653 28.192 153.957 28.192C157.653 28.192 160.653 28.792 162.957 29.992C165.309 31.144 167.061 32.968 168.213 35.464C169.365 37.912 169.941 41.08 169.941 44.968V51.448C169.941 53.128 169.965 54.832 170.013 56.56C170.109 58.288 170.205 60.04 170.301 61.816C170.445 63.544 170.589 65.272 170.733 67H161.589C161.397 65.8 161.205 64.432 161.013 62.896C160.869 61.312 160.749 59.728 160.653 58.144H159.357C158.685 59.968 157.725 61.624 156.477 63.112C155.229 64.6 153.693 65.8 151.869 66.712C150.093 67.576 148.053 68.008 145.749 68.008ZM150.141 60.52C151.053 60.52 151.965 60.352 152.877 60.016C153.837 59.68 154.749 59.224 155.613 58.648C156.525 58.024 157.341 57.256 158.061 56.344C158.829 55.432 159.453 54.4 159.933 53.248L159.789 47.2L161.445 47.56C160.581 48.184 159.573 48.688 158.421 49.072C157.269 49.408 156.069 49.672 154.821 49.864C153.621 50.056 152.421 50.272 151.221 50.512C150.021 50.752 148.941 51.064 147.981 51.448C147.069 51.832 146.325 52.36 145.749 53.032C145.221 53.656 144.957 54.544 144.957 55.696C144.957 57.184 145.437 58.36 146.397 59.224C147.357 60.088 148.605 60.52 150.141 60.52Z" fill="url(#paint2_linear_9_77)"/>
<defs>
<linearGradient id="paint0_linear_9_77" x1="5.26364e-08" y1="43" x2="33.8708" y2="43.3836" gradientUnits="userSpaceOnUse">
<stop stop-color="#EB2D4E"/>
<stop offset="1" stop-color="#D90429"/>
</linearGradient>
<linearGradient id="paint1_linear_9_77" x1="5.26364e-08" y1="43" x2="33.8708" y2="43.3836" gradientUnits="userSpaceOnUse">
<stop stop-color="#EB2D4E"/>
<stop offset="1" stop-color="#D90429"/>
</linearGradient>
<linearGradient id="paint2_linear_9_77" x1="60" y1="43" x2="141.13" y2="44.5357" gradientUnits="userSpaceOnUse">
<stop stop-color="#EB2D4E"/>
<stop offset="1" stop-color="#D90429"/>
</linearGradient>
</defs>
</svg>
